<?xml version="1.0" encoding="utf-8"?>
<!-- Generator: Adobe Illustrator 23.0.0, SVG Export Plug-In . SVG Version: 6.00 Build 0)  -->
<svg version="1.1" id="Layer_1" xmlns="http://www.w3.org/2000/svg" xmlns:xlink="http://www.w3.org/1999/xlink" x="0px" y="0px"
	 viewBox="0 0 800 800" style="enable-background:new 0 0 800 800;" xml:space="preserve">
<style type="text/css">
	.st0{fill:url(#SVGID_1_);}
	.st1{fill:url(#SVGID_2_);}
	.st2{fill:url(#SVGID_3_);}
	.st3{fill:url(#SVGID_4_);}
	.st4{fill:url(#SVGID_5_);}
	.st5{fill:url(#SVGID_6_);}
	.st6{fill:url(#SVGID_7_);}
	.st7{fill:url(#SVGID_8_);}
	.st8{fill:none;}
</style>
<image style="display:none;overflow:visible;enable-background:new    ;" width="529" height="654" xlink:href="679BB890.jpg"  transform="matrix(0.8435 0 0 0.8435 176.894 124.1751)">
</image>
<linearGradient id="SVGID_1_" gradientUnits="userSpaceOnUse" x1="200.4297" y1="566.5174" x2="197.9261" y2="220.2141">
	<stop  offset="0.1046" style="stop-color:#8C8C8C"/>
	<stop  offset="0.3161" style="stop-color:#747474"/>
	<stop  offset="0.6964" style="stop-color:#404040"/>
</linearGradient>
<path class="st0" d="M171,602.7v-2.4v-405l56.5,11.5v341.7C206.3,569.6,192.2,581.5,171,602.7z"/>
<linearGradient id="SVGID_2_" gradientUnits="userSpaceOnUse" x1="190.5722" y1="187.4942" x2="258.5241" y2="332.3392">
	<stop  offset="0.1902" style="stop-color:#D9D9D9"/>
	<stop  offset="0.4488" style="stop-color:#BBBBBB"/>
	<stop  offset="0.8042" style="stop-color:#8C8C8C"/>
</linearGradient>
<polygon class="st1" points="288.5,338.6 251,380.3 171,200.3 172.6,85.3 "/>
<linearGradient id="SVGID_3_" gradientUnits="userSpaceOnUse" x1="376.9733" y1="302.0194" x2="183.855" y2="568.2488">
	<stop  offset="0.1638" style="stop-color:#D9D9D9"/>
	<stop  offset="0.3959" style="stop-color:#D6D6D6"/>
	<stop  offset="0.546" style="stop-color:#CDCDCD"/>
	<stop  offset="0.6729" style="stop-color:#BFBFBF"/>
	<stop  offset="0.7862" style="stop-color:#AAAAAA"/>
	<stop  offset="0.8906" style="stop-color:#8F8F8F"/>
	<stop  offset="0.8992" style="stop-color:#8C8C8C"/>
</linearGradient>
<polygon class="st2" points="171,548.8 171,645.3 396,315.2 396,216.5 "/>
<linearGradient id="SVGID_4_" gradientUnits="userSpaceOnUse" x1="410.1111" y1="286.6176" x2="457.1052" y2="352.9557">
	<stop  offset="0.1902" style="stop-color:#D9D9D9"/>
	<stop  offset="0.3916" style="stop-color:#CBCBCB"/>
	<stop  offset="0.772" style="stop-color:#A6A6A6"/>
	<stop  offset="1" style="stop-color:#8C8C8C"/>
</linearGradient>
<polygon class="st3" points="440.4,380.3 396,316.2 396,215.8 469.1,325.4 "/>
<linearGradient id="SVGID_5_" gradientUnits="userSpaceOnUse" x1="594.1398" y1="546.8543" x2="591.5714" y2="272.758">
	<stop  offset="2.320735e-02" style="stop-color:#8C8C8C"/>
	<stop  offset="6.069437e-02" style="stop-color:#888888"/>
	<stop  offset="0.4098" style="stop-color:#616161"/>
	<stop  offset="0.6885" style="stop-color:#494949"/>
	<stop  offset="0.8602" style="stop-color:#404040"/>
</linearGradient>
<path class="st4" d="M618.3,593.2h2.7V216.5h-56.9V539C585.3,560.1,597.2,572,618.3,593.2z"/>
<linearGradient id="SVGID_6_" gradientUnits="userSpaceOnUse" x1="615.4672" y1="586.3395" x2="542.9547" y2="485.0343">
	<stop  offset="0.1902" style="stop-color:#D9D9D9"/>
	<stop  offset="0.3567" style="stop-color:#D4D4D4"/>
	<stop  offset="0.5594" style="stop-color:#C5C5C5"/>
	<stop  offset="0.7799" style="stop-color:#ACACAC"/>
	<stop  offset="1" style="stop-color:#8C8C8C"/>
</linearGradient>
<polygon class="st5" points="621,551.8 621,645.3 521,500.3 544,435.3 "/>
<linearGradient id="SVGID_7_" gradientUnits="userSpaceOnUse" x1="411.6295" y1="600.9304" x2="605.3209" y2="191.1747">
	<stop  offset="9.155826e-03" style="stop-color:#D9D9D9"/>
	<stop  offset="2.230240e-02" style="stop-color:#D6D6D6"/>
	<stop  offset="0.161" style="stop-color:#BBBBBB"/>
	<stop  offset="0.3127" style="stop-color:#A6A6A6"/>
	<stop  offset="0.4822" style="stop-color:#989898"/>
	<stop  offset="0.6838" style="stop-color:#8F8F8F"/>
	<stop  offset="1" style="stop-color:#8C8C8C"/>
</linearGradient>
<polygon class="st6" points="392.8,573.1 396,706.7 621,216.5 621,85.3 "/>
<linearGradient id="SVGID_8_" gradientUnits="userSpaceOnUse" x1="381.321" y1="609.4359" x2="323.7646" y2="483.8278">
	<stop  offset="9.155826e-03" style="stop-color:#D9D9D9"/>
	<stop  offset="0.2344" style="stop-color:#CDCDCD"/>
	<stop  offset="0.6388" style="stop-color:#AEAEAE"/>
	<stop  offset="1" style="stop-color:#8C8C8C"/>
</linearGradient>
<polygon class="st7" points="392.8,573.1 396,706.7 306,505.3 336,445.3 "/>
<path class="st8" d="M172.5,202.2"/>
<path class="st8" d="M394.2,706.7"/>
<path class="st8" d="M396,315.2"/>
<path class="st8" d="M621,645.3"/>
<path class="st8" d="M396,216.5"/>
<path class="st8" d="M621,551.8"/>
<path class="st8" d="M392.8,573.1"/>
<path class="st8" d="M172.6,85.3"/>
</svg>
